<?xml version="1.0" encoding="UTF-8"?><svg id="a" xmlns="http://www.w3.org/2000/svg" viewBox="0 0 696.5 228.3"><defs><style>.b{fill:#847f7c;}.c{fill:#f0eb3a;}</style></defs><g><g><rect y=".3" width="170" height="227.7" rx="19.8" ry="19.8"/><g><rect x="7" y="8" width="156.1" height="192.7" rx="14.2" ry="14.2"/><rect x="7" y="8" width="156.1" height="192.7" rx="14.2" ry="14.2"/></g><path d="M12.2,169c.3-1,.8-2,.8-3,0-2,1.1-2.7,2.9-2.9,2.3-.3,4.7-.7,7.3-1.1,.6-5.4,1.2-10.8,1.8-16.1,1.1-10,2.3-20,3.3-30,1-9.6,2-19.2,3-28.8,1.1-9.8,2.2-19.7,3.3-29.5,.8-7.2,1.5-14.3,2.2-21.5,.4-3.7,.3-3.7,4-3.7,15,0,29.9,0,44.9,0,.8,0,1.6,0,3,0-4.3,40.6-8.6,81-12.9,121.4,4.4,1,6.3-.1,7.4-4.1,6.8-23.9,13.6-47.8,20.5-71.7,1.5-5.4,3-10.8,4.6-16.6-1.1,0-2-.2-2.8-.2-4.4,0-8.7,0-13.1,0-2.1,0-2.4-.6-1.7-2.5,1.8-5.2,1.7-5.2,7.1-5.2,3.6,0,7.2,0,10.8,0,1.4,0,2.1-.5,2.4-1.8,1.9-6.8,3.8-13.5,5.7-20.3,.9-3.5,.9-3.5,4.6-3.5,4.6,0,9.2,0,13.8,0,.8,0,1.6,0,2.8,0-2.4,8.6-4.6,16.8-7,25.4,1.1,0,2,.1,2.8,.1,6.5,0,13,0,19.5,0,1.9,0,2.4,.6,2.2,2.5-1.5,11.9-2.9,23.7-4.4,35.6-1.4,11.1-2.8,22.3-4.2,33.4-1.1,8.9-2.1,17.9-3.2,26.8-.8,6.7-1.6,13.3-2.5,20,0,.5-1,1.2-1.6,1.2-11.3,0-22.5,0-33.8,0-.6,0-1.3-1-1.9-1.6-.2-.2,0-.6,0-1q-.7-4.7,4.2-4.7c3.5,0,6.9,0,10.3,0,1.8,0,2.5-.8,2.7-2.4,1.5-12.6,3-25.2,4.6-37.8,1.7-13.2,3.5-26.5,5.2-39.7,1-7.6,2-15.3,2.9-22.9,0-.5-.7-1.6-1.1-1.6-1.6,0-3.5-.9-4.2,1.6-1.7,6.6-3.6,13.1-5.4,19.6-3.8,14-7.7,28.1-11.5,42.1-4.1,15-8.2,29.9-12.3,44.9-1.4,5.3-1.3,5.4-6.8,5.4-4.5,0-9,0-13.6,0-.8,0-1.6,0-2.7,0,1.3-4.7,2.5-9,3.8-13.7-2.9,.4-5.4,.6-7.9,1-12.4,1.9-24.8,3.9-37.2,5.8-7,1.1-13.9,2.1-20.9,3.2-.6,0-1.3,0-1.9-.1v-2Zm31.9-10.2c4-.6,7.4-1,10.9-1.6,.7-.1,1.5-1.3,1.6-2,1.2-10.6,2.3-21.3,3.5-31.9,.2-1.6-.4-2-1.9-2-2.2,0-4.4,0-6.6,0-3.5,0-3.5,0-3.8,3.5-.8,7.6-1.7,15.3-2.5,22.9-.4,3.6-.7,7.1-1.1,11.2Zm15.1-84.3c.8,0,1.6,0,2.5,0,3.6,0,3.6,0,3.9-3.6,.3-3.9,.8-7.8,1.2-11.7,.6-6,1.2-12,1.9-18,.2-1.7-.4-2.1-2-2.1-2.5,0-4.9,0-7.4,0-1.5,0-2.1,.5-2.3,2.1-.9,9.2-2,18.3-2.9,27.5-.6,5.8-.6,5.8,5.2,5.8Zm5.2,6.9c-3.3,0-6.1,.2-9,0-2.5-.2-3.2,.7-3.4,3.1-.2,4.1-.9,8.3-1.3,12.4-.6,5.2-1.1,10.4-1.6,15.6-.2,1.5,.4,2,1.9,2,2.5-.1,5.1-.1,7.6,0,1.9,.1,2.3-.7,2.5-2.4,.3-4.2,.9-8.4,1.3-12.7,.6-5.8,1.3-11.7,2-17.9Z"/><g><rect x="48" y="211.4" width="74.9" height="6.5" rx="3.3" ry="3.3"/><rect x="48" y="211.4" width="74.9" height="6.5" rx="3.3" ry="3.3"/></g></g><g><rect y=".3" width="170" height="227.7" rx="19.8" ry="19.8"/><rect class="c" x="7" y="8" width="156.1" height="192.7" rx="14.2" ry="14.2"/><path d="M12.2,169c.3-1,.8-2,.8-3,0-2,1.1-2.7,2.9-2.9,2.3-.3,4.7-.7,7.3-1.1,.6-5.4,1.2-10.8,1.8-16.1,1.1-10,2.3-20,3.3-30,1-9.6,2-19.2,3-28.8,1.1-9.8,2.2-19.7,3.3-29.5,.8-7.2,1.5-14.3,2.2-21.5,.4-3.7,.3-3.7,4-3.7,15,0,29.9,0,44.9,0,.8,0,1.6,0,3,0-4.3,40.6-8.6,81-12.9,121.4,4.4,1,6.3-.1,7.4-4.1,6.8-23.9,13.6-47.8,20.5-71.7,1.5-5.4,3-10.8,4.6-16.6-1.1,0-2-.2-2.8-.2-4.4,0-8.7,0-13.1,0-2.1,0-2.4-.6-1.7-2.5,1.8-5.2,1.7-5.2,7.1-5.2,3.6,0,7.2,0,10.8,0,1.4,0,2.1-.5,2.4-1.8,1.9-6.8,3.8-13.5,5.7-20.3,.9-3.5,.9-3.5,4.6-3.5,4.6,0,9.2,0,13.8,0,.8,0,1.6,0,2.8,0-2.4,8.6-4.6,16.8-7,25.4,1.1,0,2,.1,2.8,.1,6.5,0,13,0,19.5,0,1.9,0,2.4,.6,2.2,2.5-1.5,11.9-2.9,23.7-4.4,35.6-1.4,11.1-2.8,22.3-4.2,33.4-1.1,8.9-2.1,17.9-3.2,26.8-.8,6.7-1.6,13.3-2.5,20,0,.5-1,1.2-1.6,1.2-11.3,0-22.5,0-33.8,0-.6,0-1.3-1-1.9-1.6-.2-.2,0-.6,0-1q-.7-4.7,4.2-4.7c3.5,0,6.9,0,10.3,0,1.8,0,2.5-.8,2.7-2.4,1.5-12.6,3-25.2,4.6-37.8,1.7-13.2,3.5-26.5,5.2-39.7,1-7.6,2-15.3,2.9-22.9,0-.5-.7-1.6-1.1-1.6-1.6,0-3.5-.9-4.2,1.6-1.7,6.6-3.6,13.1-5.4,19.6-3.8,14-7.7,28.1-11.5,42.1-4.1,15-8.2,29.9-12.3,44.9-1.4,5.3-1.3,5.4-6.8,5.4-4.5,0-9,0-13.6,0-.8,0-1.6,0-2.7,0,1.3-4.7,2.5-9,3.8-13.7-2.9,.4-5.4,.6-7.9,1-12.4,1.9-24.8,3.9-37.2,5.8-7,1.1-13.9,2.1-20.9,3.2-.6,0-1.3,0-1.9-.1v-2Zm31.9-10.2c4-.6,7.4-1,10.9-1.6,.7-.1,1.5-1.3,1.6-2,1.2-10.6,2.3-21.3,3.5-31.9,.2-1.6-.4-2-1.9-2-2.2,0-4.4,0-6.6,0-3.5,0-3.5,0-3.8,3.5-.8,7.6-1.7,15.3-2.5,22.9-.4,3.6-.7,7.1-1.1,11.2Zm15.1-84.3c.8,0,1.6,0,2.5,0,3.6,0,3.6,0,3.9-3.6,.3-3.9,.8-7.8,1.2-11.7,.6-6,1.2-12,1.9-18,.2-1.7-.4-2.1-2-2.1-2.5,0-4.9,0-7.4,0-1.5,0-2.1,.5-2.3,2.1-.9,9.2-2,18.3-2.9,27.5-.6,5.8-.6,5.8,5.2,5.8Zm5.2,6.9c-3.3,0-6.1,.2-9,0-2.5-.2-3.2,.7-3.4,3.1-.2,4.1-.9,8.3-1.3,12.4-.6,5.2-1.1,10.4-1.6,15.6-.2,1.5,.4,2,1.9,2,2.5-.1,5.1-.1,7.6,0,1.9,.1,2.3-.7,2.5-2.4,.3-4.2,.9-8.4,1.3-12.7,.6-5.8,1.3-11.7,2-17.9Z"/><rect class="b" x="48" y="211.4" width="74.9" height="6.5" rx="3.3" ry="3.3"/></g></g><g><g><rect x="175.5" width="170" height="227.7" rx="19.8" ry="19.8"/><g><rect x="182.5" y="7.7" width="156.1" height="192.7" rx="14.2" ry="14.2"/><rect x="182.5" y="7.7" width="156.1" height="192.7" rx="14.2" ry="14.2"/></g><g><path d="M304.4,71.6h27.3c-.7,2.4-1.1,4.5-1.9,6.4-.3,.7-1.7,1.2-2.6,1.2-7,0-14,.1-20.9,0-2,0-2.6,.5-2.8,2.6-.9,13-1.9,26-3.2,38.9-.3,3-1.9,5.9-3,8.7-6.1,15-12.3,29.9-18.3,45-.8,1.9-1.7,2.6-3.7,2.6-8.2-.1-16.4,0-25.1,0,1.2-2.6,2.2-4.8,3.3-7.1,7.5-15.4,15-30.7,22.4-46.1,1.2-2.4,1.7-5.3,1.9-8,.9-11.3,1.4-22.6,2.2-33.8,.2-2.3-.6-2.7-2.7-2.7-13.3,0-26.6,0-39.9,0-3.1,0-3.1,0-2.1-3q1.5-4.6,6.3-4.6c12.2,0,24.5,0,36.7,0,2,0,2.6-.5,2.7-2.6,.6-10.4,1.4-20.8,1.9-31.1,.1-2.3,1-2.8,3.2-2.8,6.1,.1,12.2,0,18.2,0,3,0,3,0,2.7,3.1-.9,10.4-1.7,20.7-2.5,31.1,0,.6,0,1.1,0,2.2Z"/><path d="M213.3,164c4.4,0,8.5,0,12.6,0,2.1,0,2.8,.4,2.1,2.7-2.1,6.1-.6,5-6.9,5-10,0-20,0-30.1,0-2.3,0-3-.5-2.6-2.9,2.1-14.2,4.1-28.3,6.2-42.5,2.7-18.6,5.3-37.3,7.9-55.9,1.6-11.1,3.1-22.2,4.6-33.3,.2-1.5,.8-2.1,2.4-2.1,6.5,0,13,0,19.5,0,1.7,0,2,.5,1.8,2.2-2.3,16-4.4,32.1-6.7,48.1-1.7,12.1-3.5,24.1-5.2,36.2-1.8,13-3.7,26.1-5.4,39.1-.1,1,0,1.9,0,3.2Z"/></g><g><rect x="223.6" y="211.1" width="74.9" height="6.5" rx="3.3" ry="3.3"/><rect x="223.6" y="211.1" width="74.9" height="6.5" rx="3.3" ry="3.3"/></g></g><g><rect class="c" x="182.5" y="7.7" width="156.1" height="192.7" rx="14.2" ry="14.2"/><g><path d="M304.4,71.6h27.3c-.7,2.4-1.1,4.5-1.9,6.4-.3,.7-1.7,1.2-2.6,1.2-7,0-14,.1-20.9,0-2,0-2.6,.5-2.8,2.6-.9,13-1.9,26-3.2,38.9-.3,3-1.9,5.9-3,8.7-6.1,15-12.3,29.9-18.3,45-.8,1.9-1.7,2.6-3.7,2.6-8.2-.1-16.4,0-25.1,0,1.2-2.6,2.2-4.8,3.3-7.1,7.5-15.4,15-30.7,22.4-46.1,1.2-2.4,1.7-5.3,1.9-8,.9-11.3,1.4-22.6,2.2-33.8,.2-2.3-.6-2.7-2.7-2.7-13.3,0-26.6,0-39.9,0-3.1,0-3.1,0-2.1-3q1.5-4.6,6.3-4.6c12.2,0,24.5,0,36.7,0,2,0,2.6-.5,2.7-2.6,.6-10.4,1.4-20.8,1.9-31.1,.1-2.3,1-2.8,3.2-2.8,6.1,.1,12.2,0,18.2,0,3,0,3,0,2.7,3.1-.9,10.4-1.7,20.7-2.5,31.1,0,.6,0,1.1,0,2.2Z"/><path d="M213.3,164c4.4,0,8.5,0,12.6,0,2.1,0,2.8,.4,2.1,2.7-2.1,6.1-.6,5-6.9,5-10,0-20,0-30.1,0-2.3,0-3-.5-2.6-2.9,2.1-14.2,4.1-28.3,6.2-42.5,2.7-18.6,5.3-37.3,7.9-55.9,1.6-11.1,3.1-22.2,4.6-33.3,.2-1.5,.8-2.1,2.4-2.1,6.5,0,13,0,19.5,0,1.7,0,2,.5,1.8,2.2-2.3,16-4.4,32.1-6.7,48.1-1.7,12.1-3.5,24.1-5.2,36.2-1.8,13-3.7,26.1-5.4,39.1-.1,1,0,1.9,0,3.2Z"/></g><rect class="b" x="223.6" y="211.1" width="74.9" height="6.5" rx="3.3" ry="3.3"/></g></g><g><g><rect x="351" y=".3" width="170" height="227.7" rx="19.8" ry="19.8"/><g><rect x="358" y="8" width="156.1" height="192.7" rx="14.2" ry="14.2"/><rect x="358" y="8" width="156.1" height="192.7" rx="14.2" ry="14.2"/></g><path d="M473.8,59.6c-1.4,0-2.3,0-3.3,0-32.8,0-65.6,0-98.3,0q-3.2,0-2.5-3.2t5.5-4.5c42.8,0,85.6,0,128.4,0,.6,0,1.3,0,2.3,0-.3,.8-.4,1.4-.6,2-11.7,23-23.4,45.9-35,68.9-.7,1.4-1.7,1.7-3.2,1.7-9.7,0-19.4,0-29.1,0-.9,0-1.7,0-3.2,.2,8.6,15.9,16.9,31.5,25.4,47.3-1.1,.1-1.8,.2-2.5,.2-8.2,0-16.4,0-24.6,0-1.8,0-2.8-.6-3.6-2.2-12.6-25.3-25.3-50.7-38-76-.4-.7-.6-1.5-.9-2.4,.8-.1,1.3-.3,1.8-.3,7.4,0,14.8,.2,22.2,.2,1.9,0,2.9,.8,3.8,2.4,3.7,7,7.6,14,11.3,21,.7,1.2,1.4,1.8,2.9,1.7,3.7-.1,7.4,0,11.1-.1,.9,0,2.2-.7,2.6-1.5,9.1-18,18.1-36.1,27.1-54.2,.1-.3,.2-.6,.5-1.3Z"/><g><rect x="399.1" y="211.4" width="74.9" height="6.5" rx="3.3" ry="3.3"/><rect x="399.1" y="211.4" width="74.9" height="6.5" rx="3.3" ry="3.3"/></g></g><g><rect class="c" x="358" y="8" width="156.1" height="192.7" rx="14.2" ry="14.2"/><path d="M473.8,59.6c-1.4,0-2.3,0-3.3,0-32.8,0-65.6,0-98.3,0q-3.2,0-2.5-3.2t5.5-4.5c42.8,0,85.6,0,128.4,0,.6,0,1.3,0,2.3,0-.3,.8-.4,1.4-.6,2-11.7,23-23.4,45.9-35,68.9-.7,1.4-1.7,1.7-3.2,1.7-9.7,0-19.4,0-29.1,0-.9,0-1.7,0-3.2,.2,8.6,15.9,16.9,31.5,25.4,47.3-1.1,.1-1.8,.2-2.5,.2-8.2,0-16.4,0-24.6,0-1.8,0-2.8-.6-3.6-2.2-12.6-25.3-25.3-50.7-38-76-.4-.7-.6-1.5-.9-2.4,.8-.1,1.3-.3,1.8-.3,7.4,0,14.8,.2,22.2,.2,1.9,0,2.9,.8,3.8,2.4,3.7,7,7.6,14,11.3,21,.7,1.2,1.4,1.8,2.9,1.7,3.7-.1,7.4,0,11.1-.1,.9,0,2.2-.7,2.6-1.5,9.1-18,18.1-36.1,27.1-54.2,.1-.3,.2-.6,.5-1.3Z"/><rect class="b" x="399.1" y="211.4" width="74.9" height="6.5" rx="3.3" ry="3.3"/></g></g><g><g><rect x="526.5" y=".6" width="170" height="227.7" rx="19.8" ry="19.8"/><g><rect x="533.5" y="8.3" width="156.1" height="192.7" rx="14.2" ry="14.2"/><rect x="533.5" y="8.3" width="156.1" height="192.7" rx="14.2" ry="14.2"/></g><path d="M676.5,170.8c-1,.1-1.7,.2-2.5,.2-7.9,0-15.8,0-23.7,0-1.7,0-2.6-.6-3.3-2.2-7.7-16.5-15.4-33-23.3-49.9-.7,.6-1.4,1-1.8,1.6-13.1,16.2-26.2,32.4-39.3,48.5-.7,.8-2,1.6-3,1.7-11.7,.1-23.3,0-35,0-.6,0-1.1-.2-2-.3,.8-2.3,1.4-4.5,2.3-6.6,.2-.5,1.3-.9,2-.9,2.6-.1,5.3-.1,7.9,0,1.8,0,2.9-.5,3.9-1.9,12.5-15.6,25-31.2,37.5-46.8,14.2-17.8,28.5-35.6,42.7-53.4,.5-.6,.9-1.3,1.8-2.4h-79.1c.9-2.7,1.5-5.1,2.5-7.2,.3-.6,1.9-.7,2.9-.7,17.7,0,35.5,0,53.2,0,17.1,0,34.2,0,51.3,0,1,0,1.9,0,3.7,0-1.5,3.5-2.1,6.8-4,9.1-13.7,17.3-27.7,34.3-41.6,51.4-.6,.8-1.2,1.6-2.2,2.9,1.3,0,2.1,.2,2.9,.2,4.7,0,9.4,0,14,0,.9,0,2.3,.7,2.7,1.4,9.8,18.1,19.5,36.3,29.4,55Z"/><g><rect x="574.6" y="211.7" width="74.9" height="6.5" rx="3.3" ry="3.3"/><rect x="574.6" y="211.7" width="74.9" height="6.5" rx="3.3" ry="3.3"/></g></g><g><rect class="c" x="533.5" y="8.3" width="156.1" height="192.7" rx="14.2" ry="14.2"/><path d="M676.5,170.8c-1,.1-1.7,.2-2.5,.2-7.9,0-15.8,0-23.7,0-1.7,0-2.6-.6-3.3-2.2-7.7-16.5-15.4-33-23.3-49.9-.7,.6-1.4,1-1.8,1.6-13.1,16.2-26.2,32.4-39.3,48.5-.7,.8-2,1.6-3,1.7-11.7,.1-23.3,0-35,0-.6,0-1.1-.2-2-.3,.8-2.3,1.4-4.5,2.3-6.6,.2-.5,1.3-.9,2-.9,2.6-.1,5.3-.1,7.9,0,1.8,0,2.9-.5,3.9-1.9,12.5-15.6,25-31.2,37.5-46.8,14.2-17.8,28.5-35.6,42.7-53.4,.5-.6,.9-1.3,1.8-2.4h-79.1c.9-2.7,1.5-5.1,2.5-7.2,.3-.6,1.9-.7,2.9-.7,17.7,0,35.5,0,53.2,0,17.1,0,34.2,0,51.3,0,1,0,1.9,0,3.7,0-1.5,3.5-2.1,6.8-4,9.1-13.7,17.3-27.7,34.3-41.6,51.4-.6,.8-1.2,1.6-2.2,2.9,1.3,0,2.1,.2,2.9,.2,4.7,0,9.4,0,14,0,.9,0,2.3,.7,2.7,1.4,9.8,18.1,19.5,36.3,29.4,55Z"/><rect class="b" x="574.6" y="211.7" width="74.9" height="6.5" rx="3.3" ry="3.3"/></g></g></svg>