<svg id="レイヤー_1" data-name="レイヤー 1" xmlns="http://www.w3.org/2000/svg" viewBox="0 0 311.04443 58.50781"><defs><style>.cls-1{fill:#1f2a68;}.cls-2{fill:#fff;}</style></defs><rect class="cls-1" x="107.51827" y="6.50393" width="45.5" height="45.5" transform="translate(159.5222 -101.01434) rotate(90)"/><path class="cls-2" d="M131.01807,17.97656c-1.2583,4.396-3.95948,14.51953-5.73536,20.42578,3.959-.44433,8.36231-1.06543,11.76661-1.55468a53.74738,53.74738,0,0,0-3.51514-7.50391l5.62451-2.75293a153.12148,153.12148,0,0,1,8.06641,18.69336l-6.06836,3.24219c-.44385-1.46582-.999-3.15332-1.62793-4.92871-6.10547.88769-16.72559,2.17578-21.20264,2.75293-.92529.13281-2.479.39941-3.70019.57714l-1.03614-7.85937c1.332,0,3.145,0,4.40332-.04492a2.36787,2.36787,0,0,0,.55518-.044c2.146-6.66015,5.03223-17.80615,6.14209-22.55713a43.56844,43.56844,0,0,0,.9624-5.59472l7.10449,1.73144C132.20215,14.02441,131.60986,15.93408,131.01807,17.97656Z"/><rect class="cls-1" x="158.02567" y="6.50388" width="45.5" height="45.5" transform="translate(210.02955 -151.52179) rotate(90)"/><path class="cls-2" d="M196.21533,18.86475c-1.88769,3.72949-5.40234,9.27978-8.73242,12.1665l-4.626-4.44043a22.66646,22.66646,0,0,0,6.10547-7.32666H170.68311a37.19076,37.19076,0,0,0-4.69922.355v-7.415a26.94878,26.94878,0,0,0,4.69922.48828h19.2041a21.43027,21.43027,0,0,0,4.44043-.44384l3.55273,3.95166C197.436,16.86621,196.58545,18.1543,196.21533,18.86475ZM172.38525,49.23633l-5.21679-5.10645a13.74,13.74,0,0,0,4.21777-2.708c4.10742-3.73047,5.03223-7.50489,5.03223-14.74219a30.15474,30.15474,0,0,0-.2959-4.44043h6.51269C182.63525,32.67383,182.81982,42.26562,172.38525,49.23633Z"/><rect class="cls-1" x="208.53307" y="6.50393" width="45.5" height="45.5" transform="translate(260.53701 -202.02914) rotate(90)"/><path class="cls-2" d="M226.59326,30.05273l-5.47656,2.44239a90.97607,90.97607,0,0,0-3.4043-10.34668l5.40235-2.30908C224.15088,22.32617,225.853,27.47705,226.59326,30.05273Zm17.87207-5.10693a40.04345,40.04345,0,0,1-4.958,12.61084,30.445,30.445,0,0,1-12.54394,11.32227l-4.69922-5.77149a24.759,24.759,0,0,0,12.39551-9.23633c2.44238-3.68554,4.18164-9.72461,4.51465-15.23047l6.32714,2.44239C244.98291,22.81445,244.72412,23.88037,244.46533,24.9458Zm-9.65722,2.30908-5.36622,2.22022a94.44187,94.44187,0,0,0-3.07128-9.94629l5.3291-2.08692C232.43994,19.39551,234.25244,25.168,234.80811,27.25488Z"/><rect class="cls-1" x="259.04047" y="6.50393" width="45.5" height="45.5" transform="translate(311.04441 -252.53654) rotate(90)"/><path class="cls-2" d="M294.75146,7.80811c2.51563,0,4.5879,2.48681,4.5879,5.50585,0,3.01954-2.07227,5.50635-4.47754,5.50635-.18457.666-.333,1.332-.44336,1.86475-.88867,4.17383-2.40528,10.92334-5.58789,16.07373A30.99854,30.99854,0,0,1,273.771,49.23633l-4.88477-6.43848a23.96455,23.96455,0,0,0,14.542-10.25683,27.78827,27.78827,0,0,0,4.07032-11.45655H271.21729c-1.8125,0-3.84766.1333-4.81055.22217V13.71387a42.4313,42.4313,0,0,0,4.81055.39941h16.31835a16.16089,16.16089,0,0,0,2.66407-.22168,2.79949,2.79949,0,0,1-.03711-.57764C290.1626,10.29492,292.23486,7.80811,294.75146,7.80811Zm0,7.85937A2.19929,2.19929,0,0,0,296.7124,13.314a1.994,1.994,0,1,0-3.92285,0A2.19933,2.19933,0,0,0,294.75146,15.66748Z"/><rect class="cls-1" x="57.01087" y="6.50388" width="45.5" height="45.5" transform="translate(109.01475 -50.50699) rotate(90)"/><path class="cls-2" d="M79.03027,20.50732A53.68256,53.68256,0,0,0,89.61279,9.58447L94.46,15.13477a75.32773,75.32773,0,0,1-9.87939,9.502V42.13184a39.62236,39.62236,0,0,0,.37011,6.43847H77.84619c.14795-1.19922.2959-4.30664.2959-6.43847V29.12158a66.86624,66.86624,0,0,1-12.50684,5.99463l-2.77539-6.79394A53.62257,53.62257,0,0,0,79.03027,20.50732Z"/><rect class="cls-1" x="6.50347" y="6.50388" width="45.5" height="45.5" transform="translate(58.50735 0.00041) rotate(90)"/><path class="cls-2" d="M30.04,15.1792h6.14209a11.78265,11.78265,0,0,0,3.66357-.57715l4.51416,3.37451A25.52408,25.52408,0,0,0,42.917,21.61768a56.48788,56.48788,0,0,1-5.2915,12.1665c1.59082,1.377,3.03418,2.66406,4.07031,3.64062l-4.29248,6.12793c-.96191-1.06543-2.29394-2.44238-3.811-3.90722a35.02378,35.02378,0,0,1-12.729,10.0791l-5.21728-5.417a30.37278,30.37278,0,0,0,13.09863-9.10254c-2.22022-1.9541-4.40332-3.77442-6.06836-5.06153l3.99658-4.92919C28.375,26.41309,30.521,28.01172,32.667,29.69873a32.56306,32.56306,0,0,0,3.51514-8.43652H26.67285a51.49156,51.49156,0,0,1-9.73193,11.36767l-4.84717-4.48535a39.79122,39.79122,0,0,0,11.72949-14.3418,25.65829,25.65829,0,0,0,1.96143-5.28418l6.47558,2.39795C31.4458,12.293,30.59473,14.02441,30.04,15.1792Z"/></svg>